<?xml version="1.0" encoding="UTF-8"?>
<svg version="1.1" xmlns="http://www.w3.org/2000/svg" width="500" height="500">
<path d="M0 0 C165 0 330 0 500 0 C500 165 500 330 500 500 C335 500 170 500 0 500 C0 335 0 170 0 0 Z " fill="#FEFEFE" transform="translate(0,0)"/>
<path d="M0 0 C1.98 0 3.96 0 6 0 C6 11.55 6 23.1 6 35 C4.02 35 2.04 35 0 35 C0 34.01 0 33.02 0 32 C-0.66 32 -1.32 32 -2 32 C-2 32.66 -2 33.32 -2 34 C-5.51907058 35.75953529 -9.16817565 35.64744618 -13 35 C-16.01634601 32.84546713 -16.76471462 32.2921242 -18 29 C-18.86078207 23.38713179 -19.41699137 17.11372995 -16.125 12.1875 C-12.25734995 9.48014496 -9.82136858 9.42771687 -5.20703125 9.59375 C-3 10 -3 10 -1 12 C-0.67 8.04 -0.34 4.08 0 0 Z " fill="#040404" transform="translate(324,233)"/>
<path d="M0 0 C1.98 0 3.96 0 6 0 C6 4.29 6 8.58 6 13 C6.66 13 7.32 13 8 13 C8 12.34 8 11.68 8 11 C11.51640083 9.24179959 15.17127571 9.34647637 19 10 C21.94666318 12.1648954 22.76198903 12.76442543 24 16 C24.89294729 22.42401885 24.9399139 27.63837189 21 33 C16.94641576 35.70238949 14.81689896 35.22937614 10 35 C9.34 34.67 8.68 34.34 8 34 C8 33.34 8 32.68 8 32 C7.34 32 6.68 32 6 32 C6 32.99 6 33.98 6 35 C4.02 35 2.04 35 0 35 C0 23.45 0 11.9 0 0 Z " fill="#060606" transform="translate(198,233)"/>
<path d="M0 0 C2.08052367 1.21302617 3.91618679 2.30095214 5.6484375 3.9765625 C5.6484375 4.9665625 5.6484375 5.9565625 5.6484375 6.9765625 C3.3984375 8.1640625 3.3984375 8.1640625 0.6484375 8.9765625 C-0.69557083 7.99095639 -2.02763278 6.98897935 -3.3515625 5.9765625 C-7.21560408 5.4935573 -9.37945513 5.24488738 -12.546875 7.62890625 C-14.83796056 10.6093011 -14.82888009 12.2559227 -14.7265625 15.9765625 C-14.71367187 17.0078125 -14.70078125 18.0390625 -14.6875 19.1015625 C-14.35900102 21.91290264 -13.88882809 23.62160244 -12.3515625 25.9765625 C-9.55286223 27.37591263 -7.44657458 27.22921655 -4.3515625 26.9765625 C-2.09417745 25.41974522 -1.48472048 24.40024697 -0.6640625 21.7890625 C-0.5609375 21.1909375 -0.4578125 20.5928125 -0.3515625 19.9765625 C-2.9915625 19.9765625 -5.6315625 19.9765625 -8.3515625 19.9765625 C-8.3515625 17.9965625 -8.3515625 16.0165625 -8.3515625 13.9765625 C-3.4015625 13.9765625 1.5484375 13.9765625 6.6484375 13.9765625 C6.6484375 20.2465625 6.6484375 26.5165625 6.6484375 32.9765625 C4.3384375 32.9765625 2.0284375 32.9765625 -0.3515625 32.9765625 C-0.6815625 32.3165625 -1.0115625 31.6565625 -1.3515625 30.9765625 C-2.3415625 31.6365625 -3.3315625 32.2965625 -4.3515625 32.9765625 C-8.38696245 33.63639554 -12.51517384 33.84800559 -16.26953125 32.06640625 C-19.96348255 29.22981649 -21.53373141 26.47463347 -22.3515625 21.9765625 C-23.01233391 14.56353328 -23.15707488 8.89103928 -18.3515625 2.9765625 C-13.05511605 -1.62009439 -6.48440133 -2.82211486 0 0 Z " fill="#111111" transform="translate(158.3515625,235.0234375)"/>
<path d="M0 0 C2.84625 -0.103125 5.6925 -0.20625 8.625 -0.3125 C9.95265381 -0.38078003 9.95265381 -0.38078003 11.30712891 -0.45043945 C15.38731853 -0.52161089 18.2275553 -0.31144099 21.54296875 2.20703125 C24.830627 5.94419444 24.81587032 7.84658792 24.53125 12.62109375 C23.7210396 16.24916824 21.9567594 17.86838276 19 20 C16.11788698 20.96070434 14.30149956 21.10581883 11.3125 21.0625 C9.889375 21.041875 8.46625 21.02125 7 21 C7 24.96 7 28.92 7 33 C4.69 33 2.38 33 0 33 C0 22.11 0 11.22 0 0 Z " fill="#0E0E0E" transform="translate(25,235)"/>
<path d="M0 0 C2.31 0 4.62 0 7 0 C7 3.96 7 7.92 7 12 C11.62 12 16.24 12 21 12 C21 8.04 21 4.08 21 0 C23.31 0 25.62 0 28 0 C28 10.89 28 21.78 28 33 C25.69 33 23.38 33 21 33 C21 28.05 21 23.1 21 18 C16.05 18 11.1 18 6 18 C6 22.95 6 27.9 6 33 C4.02 33 2.04 33 0 33 C0 22.11 0 11.22 0 0 Z " fill="#0D0D0D" transform="translate(338,235)"/>
<path d="M0 0 C3 2.5 3 2.5 5 5 C5.33 5.33 5.66 5.66 6 6 C6.15252309 7.91240484 6.22192773 9.83172799 6.25 11.75 C6.27578125 12.79671875 6.3015625 13.8434375 6.328125 14.921875 C5.95355327 18.43571456 5.15786565 20.22004695 3 23 C-1.22155661 25.88151893 -6.08684111 25.77372581 -11 25 C-14.62160551 23.11299112 -16.68934422 20.93196733 -18 17 C-18.3997385 12.46450546 -18.51480011 8.34420029 -16.875 4.0625 C-12.07698423 -1.21531735 -6.62248981 -2.04894712 0 0 Z " fill="#090909" transform="translate(72,243)"/>
<path d="M0 0 C3.17852316 1.64448689 5.37801764 3.75603527 7 7 C7.42054103 11.56933999 7.56125534 15.68104995 5.75 19.9375 C3.23193945 22.90521422 1.29028342 24.76924887 -2.62109375 25.46875 C-10.27153033 25.55363695 -10.27153033 25.55363695 -14.125 22.625 C-17.87468771 17.37543721 -17.6321442 12.32144199 -17 6 C-12.93803333 -0.90534335 -7.47644762 -0.96877913 0 0 Z " fill="#070707" transform="translate(390,243)"/>
<path d="M0 0 C1.14275391 0.06574219 1.14275391 0.06574219 2.30859375 0.1328125 C5.6997166 1.2494734 6.76335069 2.82497487 8.5625 5.875 C8.84864917 8.63633953 8.94839883 10.95645612 8.8125 13.6875 C8.79445312 14.38037109 8.77640625 15.07324219 8.7578125 15.78710938 C8.71101064 17.48367664 8.63927624 19.17952476 8.5625 20.875 C9.5525 20.875 10.5425 20.875 11.5625 20.875 C11.5625 22.525 11.5625 24.175 11.5625 25.875 C4.9375 26.125 4.9375 26.125 1.5625 23.875 C0.9025 24.535 0.2425 25.195 -0.4375 25.875 C-3.47680135 26.37097707 -6.39307888 26.32106903 -9.4375 25.875 C-12.19845629 23.69970111 -12.37123213 22.32940825 -12.875 18.875 C-12.4375 15.875 -12.4375 15.875 -11.0625 13.625 C-7.16324462 11.02549642 -3.02104293 10.53978867 1.5625 9.875 C1.5625 8.555 1.5625 7.235 1.5625 5.875 C0.94761719 6.019375 0.33273438 6.16375 -0.30078125 6.3125 C-1.10902344 6.498125 -1.91726562 6.68375 -2.75 6.875 C-3.95076172 7.1534375 -3.95076172 7.1534375 -5.17578125 7.4375 C-7.4375 7.875 -7.4375 7.875 -10.4375 7.875 C-10.7675 6.555 -11.0975 5.235 -11.4375 3.875 C-7.62082129 0.84797896 -4.89489149 -0.3797049 0 0 Z " fill="#121212" transform="translate(182.4375,242.125)"/>
<path d="M0 0 C5.4335044 2.49647499 5.4335044 2.49647499 6.53515625 5.27734375 C6.73046875 7.24609375 6.73046875 7.24609375 5.41796875 8.99609375 C3.73046875 10.24609375 3.73046875 10.24609375 1.73046875 10.24609375 C1.17359375 9.58609375 0.61671875 8.92609375 0.04296875 8.24609375 C-2.21622969 5.91688476 -2.21622969 5.91688476 -5.83203125 5.80859375 C-9.18822299 5.95348502 -9.18822299 5.95348502 -11.14453125 7.62109375 C-14.2268887 12.07338785 -13.93375263 17.00780244 -13.26953125 22.24609375 C-11.37043565 25.56439728 -11.37043565 25.56439728 -8.26953125 27.24609375 C-4.74487397 27.66905262 -2.63319516 27.36731505 0.73046875 26.24609375 C1.46370671 24.23101017 1.46370671 24.23101017 1.73046875 22.24609375 C4.16796875 22.62109375 4.16796875 22.62109375 6.73046875 23.24609375 C7.06046875 23.90609375 7.39046875 24.56609375 7.73046875 25.24609375 C5.81467306 29.3969844 3.78296129 31.22846981 -0.26953125 33.24609375 C-4.90589916 33.99490149 -9.92400854 34.31389981 -14.27734375 32.33203125 C-17.77711688 29.60607731 -19.88593233 26.39689051 -21.26953125 22.24609375 C-21.9385746 16.02027366 -22.02489585 10.50360419 -18.26953125 5.24609375 C-12.77756857 -0.12870706 -7.57706685 -2.51699467 0 0 Z " fill="#0B0B0B" transform="translate(248.26953125,234.75390625)"/>
<path d="M0 0 C2.25390625 1.546875 2.25390625 1.546875 4 4 C4.2906124 6.89449949 4.38186045 9.37949935 4.25 12.25 C4.23195313 12.99507812 4.21390625 13.74015625 4.1953125 14.5078125 C4.14835649 16.33909701 4.07661652 18.16971649 4 20 C4.99 20 5.98 20 7 20 C7 21.65 7 23.3 7 25 C4.69 25 2.38 25 0 25 C-0.33 24.01 -0.66 23.02 -1 22 C-1.66 22 -2.32 22 -3 22 C-3 22.66 -3 23.32 -3 24 C-6.20320397 25.60160199 -9.52426522 25.48770192 -13 25 C-15.5 23.375 -15.5 23.375 -17 21 C-17.58688021 17.47871874 -17.49243724 15.77077133 -15.5625 12.75 C-12.41054762 10.59744715 -9.66416082 10.13438676 -5.92578125 9.58984375 C-4.97251953 9.29787109 -4.97251953 9.29787109 -4 9 C-3.67 8.01 -3.34 7.02 -3 6 C-8.7974423 5.75571657 -8.7974423 5.75571657 -14 8 C-14.66 6.35 -15.32 4.7 -16 3 C-10.6822523 -0.73373775 -6.36439063 -2.25871165 0 0 Z " fill="#0D0D0D" transform="translate(276,243)"/>
<path d="M0 0 C3.1875 1.9375 3.1875 1.9375 5 5 C5.38686878 8.12631795 5.23678441 10.82708893 5 14 C-0.28 14 -5.56 14 -11 14 C-10.34 15.65 -9.68 17.3 -9 19 C-3.2025577 19.24428343 -3.2025577 19.24428343 2 17 C2.99 17.66 3.98 18.32 5 19 C3.63016497 22.16115776 3.0109362 22.9927092 0 25 C-5.08746258 25.6772783 -9.55682364 25.82467221 -14.0625 23.25 C-17.87070977 18.82756285 -18.48775345 15.21787117 -18.39453125 9.48046875 C-17.75198843 5.44071935 -15.9613537 3.74982843 -13 1 C-9.02801769 -0.98599116 -4.31962529 -0.52906073 0 0 Z " fill="#0A0A0A" transform="translate(472,243)"/>
<path d="M0 0 C3.1875 1.9375 3.1875 1.9375 5 5 C5.38686878 8.12631795 5.23678441 10.82708893 5 14 C-0.28 14 -5.56 14 -11 14 C-10.34 15.65 -9.68 17.3 -9 19 C-3.2025577 19.24428343 -3.2025577 19.24428343 2 17 C2.99 17.66 3.98 18.32 5 19 C3.63016497 22.16115776 3.0109362 22.9927092 0 25 C-5.08746258 25.6772783 -9.55682364 25.82467221 -14.0625 23.25 C-17.87070977 18.82756285 -18.48775345 15.21787117 -18.39453125 9.48046875 C-17.75198843 5.44071935 -15.9613537 3.74982843 -13 1 C-9.02801769 -0.98599116 -4.31962529 -0.52906073 0 0 Z " fill="#0A0A0A" transform="translate(126,243)"/>
<path d="M0 0 C2.31 0 4.62 0 7 0 C7.33 5.94 7.66 11.88 8 18 C8.845625 16.68 9.69125 15.36 10.5625 14 C12.19921875 11.78125 12.19921875 11.78125 14 10 C17.875 9.5 17.875 9.5 21 10 C17.2 15.76551724 17.2 15.76551724 15.1875 18.125 C13.79974172 19.88169611 13.79974172 19.88169611 14.203125 21.7578125 C15.25784126 24.72549454 16.83887205 27.11755004 18.5625 29.75 C19.20316406 30.73484375 19.84382813 31.7196875 20.50390625 32.734375 C20.99761719 33.48203125 21.49132812 34.2296875 22 35 C18.9375 35.5625 18.9375 35.5625 15 35 C12.24862054 32.27517826 10.11251255 29.23618944 8 26 C7.67 28.97 7.34 31.94 7 35 C4.69 35 2.38 35 0 35 C0 23.45 0 11.9 0 0 Z " fill="#121212" transform="translate(84,233)"/>
<path d="M0 0 C1.98 0 3.96 0 6 0 C6.33 6.6 6.66 13.2 7 20 C9.31 19.34 11.62 18.68 14 18 C15.585869 14.828262 15.37866445 11.36486178 15.5625 7.875 C15.60568359 7.12089844 15.64886719 6.36679688 15.69335938 5.58984375 C15.7994832 3.72678112 15.90025001 1.86341476 16 0 C17.98 0 19.96 0 22 0 C22 8.25 22 16.5 22 25 C20.02 25 18.04 25 16 25 C15.67 24.01 15.34 23.02 15 22 C14.39671875 22.72896484 14.39671875 22.72896484 13.78125 23.47265625 C11.55729907 25.37959663 10.39551514 25.43267414 7.5 25.4375 C6.33984375 25.46650391 6.33984375 25.46650391 5.15625 25.49609375 C3 25 3 25 1.38354492 23.28051758 C-0.24344403 20.5987276 -0.34988208 19.12688723 -0.29296875 16.015625 C-0.28330078 15.08105469 -0.27363281 14.14648438 -0.26367188 13.18359375 C-0.23853516 12.21550781 -0.21339844 11.24742187 -0.1875 10.25 C-0.17396484 9.26644531 -0.16042969 8.28289062 -0.14648438 7.26953125 C-0.11118726 4.84579585 -0.06188054 2.42317855 0 0 Z " fill="#030303" transform="translate(403,243)"/>
<path d="M0 0 C1.42505859 0.00580078 1.42505859 0.00580078 2.87890625 0.01171875 C5.4375 0.3125 5.4375 0.3125 8.4375 2.3125 C7.7775 3.6325 7.1175 4.9525 6.4375 6.3125 C3.1375 5.9825 -0.1625 5.6525 -3.5625 5.3125 C-3.2325 6.3025 -2.9025 7.2925 -2.5625 8.3125 C-0.30462109 9.48632124 -0.30462109 9.48632124 2.375 10.375 C7.24467489 12.11967489 7.24467489 12.11967489 9.4375 14.3125 C9.95890959 18.33480253 10.08270699 20.44480784 7.625 23.75 C3.01507756 26.0097659 -1.51378624 26.14768216 -6.5625 25.3125 C-8.90234375 23.78515625 -8.90234375 23.78515625 -10.5625 22.3125 C-9.9025 20.9925 -9.2425 19.6725 -8.5625 18.3125 C-7.5725 18.3125 -6.5825 18.3125 -5.5625 18.3125 C-5.2325 18.6425 -4.9025 18.9725 -4.5625 19.3125 C-2.22952567 19.35342937 0.10455225 19.35491723 2.4375 19.3125 C2.7675 18.3225 3.0975 17.3325 3.4375 16.3125 C2.66664063 16.13074219 1.89578125 15.94898438 1.1015625 15.76171875 C0.09867187 15.51035156 -0.90421875 15.25898438 -1.9375 15 C-2.93523437 14.75636719 -3.93296875 14.51273437 -4.9609375 14.26171875 C-7.5625 13.3125 -7.5625 13.3125 -9.5625 10.3125 C-9.9375 6.8125 -9.9375 6.8125 -9.5625 3.3125 C-6.5527323 0.26063765 -4.19563521 -0.07420851 0 0 Z " fill="#0C0C0C" transform="translate(440.5625,242.6875)"/>
<path d="M0 0 C1.98 0 3.96 0 6 0 C6.33 0.99 6.66 1.98 7 3 C7.37125 2.505 7.7425 2.01 8.125 1.5 C10.74694393 -0.59755514 12.73842472 -0.21743835 16 0 C16 1.65 16 3.3 16 5 C14 6 14 6 11.4375 6.5 C9.06234893 6.75411948 9.06234893 6.75411948 8 8 C7.76298761 10.85877909 7.57780818 13.69883297 7.4375 16.5625 C7.39431641 17.36880859 7.35113281 18.17511719 7.30664062 19.00585938 C7.20024738 21.00368805 7.09959112 23.0018207 7 25 C4.69 25 2.38 25 0 25 C0 16.75 0 8.5 0 0 Z " fill="#131313" transform="translate(287,243)"/>
<path d="M0 0 C3 0.4375 3 0.4375 4.875 2 C6.42190908 5.35163635 6.39126176 7.78572358 6 11.4375 C4.875 13.875 4.875 13.875 3 15.4375 C0 15.875 0 15.875 -3 15.4375 C-5.14931513 13.82803632 -5.90631341 12.9445098 -6.3984375 10.28125 C-6.39070313 9.5078125 -6.38296875 8.734375 -6.375 7.9375 C-6.38273437 7.1640625 -6.39046875 6.390625 -6.3984375 5.59375 C-5.66870935 1.64463293 -3.84248507 0.56036241 0 0 Z " fill="#F2F2F2" transform="translate(385,247.5625)"/>
<path d="M0 0 C3 0.4375 3 0.4375 4.875 1.4375 C6.68159223 4.64921951 6.51338313 7.89373032 6 11.4375 C4.875 13.9375 4.875 13.9375 3 15.4375 C0 15.9375 0 15.9375 -3 15.4375 C-5.80872754 13.09689372 -5.98435997 11.58347363 -6.375 7.9375 C-5.84747428 3.01392664 -5.12305267 0.74711185 0 0 Z " fill="#EFEFEF" transform="translate(210,247.5625)"/>
<path d="M0 0 C3 0.4375 3 0.4375 4.875 1.4375 C6.68159223 4.64921951 6.51338313 7.89373032 6 11.4375 C4.875 13.9375 4.875 13.9375 3 15.4375 C0 15.9375 0 15.9375 -3 15.4375 C-5.80872754 13.09689372 -5.98435997 11.58347363 -6.375 7.9375 C-5.84747428 3.01392664 -5.12305267 0.74711185 0 0 Z " fill="#F3F3F3" transform="translate(66,247.5625)"/>
<path d="M0 0 C3 0.5 3 0.5 4.875 2.0625 C6.42190908 5.41413635 6.39126176 7.84822358 6 11.5 C4.875 13.9375 4.875 13.9375 3 15.5 C0 16 0 16 -3 15.5 C-5.80872754 13.15939372 -5.98435997 11.64597363 -6.375 8 C-5.84542402 3.05729088 -5.10329799 0.85054966 0 0 Z " fill="#F0F0F0" transform="translate(318,247.5)"/>
<path d="M0 0 C1.258125 -0.04125 2.51625 -0.0825 3.8125 -0.125 C4.52019531 -0.14820313 5.22789063 -0.17140625 5.95703125 -0.1953125 C8 0 8 0 11 2 C11.3125 5 11.3125 5 11 8 C9 10 9 10 6.8359375 10.1953125 C4.55729167 10.13020833 2.27864583 10.06510417 0 10 C0 6.7 0 3.4 0 0 Z " fill="#F6F6F6" transform="translate(32,240)"/>
<path d="M0 0 C0.22732116 2.80362763 0.34081872 4.46186517 -1.1875 6.875 C-3 8 -3 8 -5.6875 7.6875 C-6.450625 7.460625 -7.21375 7.23375 -8 7 C-8.33 5.68 -8.66 4.36 -9 3 C-5.55930376 0.70620251 -4.27709699 0 0 0 Z " fill="#E1E1E1" transform="translate(274,256)"/>
<path d="M0 0 C-0.75 5.75 -0.75 5.75 -3 8 C-5.625 7.625 -5.625 7.625 -8 7 C-8.625 5.125 -8.625 5.125 -9 3 C-6.31795079 0.31795079 -3.73391546 0 0 0 Z " fill="#E7E7E7" transform="translate(185,256)"/>
<path d="M0 0 C3.125 0.375 3.125 0.375 6 1 C6.33 2.65 6.66 4.3 7 6 C3.7 6 0.4 6 -3 6 C-2 2 -2 2 0 0 Z " fill="#E4E4E4" transform="translate(464,247)"/>
<path d="M0 0 C3.125 0.375 3.125 0.375 6 1 C6.33 2.65 6.66 4.3 7 6 C3.7 6 0.4 6 -3 6 C-2 2 -2 2 0 0 Z " fill="#E4E4E4" transform="translate(118,247)"/>
</svg>
